inDegrees=no
num_controls=7
num_derivatives=13
num_iterations=174
num_multipliers=7
num_parameters=0
num_slacks=7
num_states=26
objective=0.483504
objective_accelerations=0.001604
objective_balance=0.004534
objective_effort=0.014121
objective_height=0.442552
objective_ligament=0.020692
solver_duration=1858.278849
status=Solve_Succeeded
success=true
DataType=double
version=3
OpenSimVersion=4.5
endheader
time	/jointset/ground_pelvis/pelvis_tilt/value	/jointset/ground_pelvis/pelvis_tx/value	/jointset/ground_pelvis/pelvis_ty/value	/jointset/hip_r/hip_flexion_r/value	/jointset/hip_r/hip_adduction_r/value	/jointset/hip_r/hip_rotation_r/value	/jointset/back/lumbar_extension/value	/jointset/patellofemoral_r/patellar_flexion_r/value	/jointset/knee_r/knee_flexion_r/value	/jointset/knee_r/knee_adduction_r/value	/jointset/knee_r/knee_rotation_r/value	/jointset/ankle_r/ankle_angle_r/value	/jointset/subtalar_r/subtalar_angle_r/value	/jointset/ground_pelvis/pelvis_tilt/speed	/jointset/ground_pelvis/pelvis_tx/speed	/jointset/ground_pelvis/pelvis_ty/speed	/jointset/hip_r/hip_flexion_r/speed	/jointset/hip_r/hip_adduction_r/speed	/jointset/hip_r/hip_rotation_r/speed	/jointset/back/lumbar_extension/speed	/jointset/patellofemoral_r/patellar_flexion_r/speed	/jointset/knee_r/knee_flexion_r/speed	/jointset/knee_r/knee_adduction_r/speed	/jointset/knee_r/knee_rotation_r/speed	/jointset/ankle_r/ankle_angle_r/speed	/jointset/subtalar_r/subtalar_angle_r/speed	/forceset/tau_hip_flexion_r	/forceset/tau_hip_adduction_r	/forceset/tau_hip_rotation_r	/forceset/tau_knee_flexion_r	/forceset/tau_ankle_angle_r	/forceset/tau_subtalar_angle_r	/forceset/tau_lumbar_extension	lambda_cid13_p0	lambda_cid14_p0	lambda_cid14_p1	lambda_cid14_p2	lambda_cid14_p3	lambda_cid14_p4	lambda_cid14_p5	/jointset/ground_pelvis/pelvis_tilt/accel	/jointset/ground_pelvis/pelvis_tx/accel	/jointset/ground_pelvis/pelvis_ty/accel	/jointset/hip_r/hip_flexion_r/accel	/jointset/hip_r/hip_adduction_r/accel	/jointset/hip_r/hip_rotation_r/accel	/jointset/back/lumbar_extension/accel	/jointset/patellofemoral_r/patellar_flexion_r/accel	/jointset/knee_r/knee_flexion_r/accel	/jointset/knee_r/knee_adduction_r/accel	/jointset/knee_r/knee_rotation_r/accel	/jointset/ankle_r/ankle_angle_r/accel	/jointset/subtalar_r/subtalar_angle_r/accel	gamma_cid13_p0	gamma_cid14_p0	gamma_cid14_p1	gamma_cid14_p2	gamma_cid14_p3	gamma_cid14_p4	gamma_cid14_p5
0.5	-0.003457027609540072	0.1122962092087776	0.9486134213377116	0.1615274654174931	-0.06693041425302661	0.02422185250201583	-0.06081821986808113	0.06190347592165915	0.06190347592166166	-0.1744401254624179	-0.1718014171066909	0.06604968055428691	0.1851226990989777	-0.06776609221347078	0.08245618752299425	-0.001392322577839406	-0.04413615734295049	-0.001809158363667584	-0.02607680461831773	-0.04275584456972063	-0.03649160325363309	-0.03649160325363565	-0.0001035636840314356	0.008209068588936951	0.08114031104010118	0.02966003142486411	0.08870563650266604	-0.02087353997963388	0.05119153000940586	-0.1767983669172582	0.1237104415357405	-0.00899194910052557	-0.005340575368244171	-35.12050017234545	-6.361457442358383	-14.63312630476307	13.77447783482732	6.514855297136584	-694.7589144588603	55.77133023131293	0.06051945738214845	-0.06545194180013715	-0.003426536342349143	-0.007162017321208546	0.002264816523732143	0.01188200403986761	0.1293562399281	-0.03688504734401352	-0.03688504734401385	-0.0002149638397388085	-0.001477295927164401	-0.09531485234951693	-0.03090533315683882	-3.3539359790054e-11	-1.876894487499437e-10	-5.551818246494452e-10	3.635389946360666e-10	2.045741010986842e-10	-5.014482597245626e-10	-1.16972263930236e-09
0.51	-0.004131615658008756	0.11311741487726	0.9485993288577701	0.161085818240198	-0.06694838888678052	0.02396171749011481	-0.06123923744377336	0.06153676238137024	0.06153676238136947	-0.1744411753024152	-0.1717194196215463	0.06685623730966878	0.1854177247943272	-0.0671461754324771	0.08177666623107829	-0.001425715848420522	-0.04418884892551816	-0.001785637301907673	-0.02594691169313502	-0.04144032029815694	-0.03685028351215656	-0.03685028351215835	-0.0001062256852287268	0.008189226967234649	0.08016134214377552	0.02934126308784903	0.08762604180615804	-0.02074604664082826	0.05069703119813746	-0.1743405500135371	0.1202019455241844	-0.009328531894256894	-0.004556991748525505	-35.10515601983369	-7.49700621337249	-14.76262943872923	13.54897004910493	6.921693745208477	-694.7555590147351	55.63985830464993	0.06352909923171075	-0.07044417511756816	-0.003227187143967793	-0.003658357869596108	0.002415528583290253	0.0140358972226756	0.133753061635215	-0.03523631463902649	-0.03523631463888095	-0.0002649961106397619	-0.002417764886948376	-0.100642603444433	-0.03293930388853135	-2.986383204612722e-11	-1.745768695026015e-10	-4.994531140686048e-10	3.426730897630557e-10	1.881302552923001e-10	-4.887158787243519e-10	-1.098869823086593e-09
0.52	-0.004799844276518956	0.113931576942377	0.9485849161521772	0.1606437770212402	-0.06696612435440069	0.02370297999955929	-0.06164687926857924	0.06116648667858354	0.06116648667858658	-0.174442246397999	-0.1716376565865478	0.06765271343705329	0.1857094474623235	-0.06649420622051404	0.08104746684990831	-0.001456367708104732	-0.04421496567388371	-0.001761325136898728	-0.02579730034934308	-0.04008069439199044	-0.03720403575197997	-0.03720403575198096	-0.0001078148004592422	0.008162178561726038	0.07912418544063488	0.02899942595424461	0.08654644710961351	-0.02061855330202809	0.05020253238681571	-0.1718827331098467	0.1166934495126219	-0.009665114687995913	-0.003773408128832606	-35.08965210071498	-8.63317297235986	-14.8921310470159	13.32333668054915	7.334853020023527	-694.7585138771601	55.50947580982277	0.06692994357615882	-0.0753875596510465	-0.002878254162962507	-0.001847050480775135	0.002423037173543568	0.0158256877617797	0.1381765668487474	-0.0358994436039403	-0.03589944360393985	-3.866463896002781e-07	-0.002918652688470901	-0.1069524137126176	-0.03551909247473974	-2.543920238109181e-11	-1.595376002914171e-10	-4.405155984170973e-10	3.237453687826684e-10	1.698592749016099e-10	-4.755057415231185e-10	-1.024231216249815e-09
0.53	-0.005461393840748794	0.1147382048908296	0.9485702113849295	0.1602016003374812	-0.06698361328210956	0.02344583744382394	-0.06204071257686078	0.06079269717125861	0.0607926971712586	-0.1744433274035877	-0.1715562012728527	0.06843853433452574	0.1859976383261486	-0.06581075198323165	0.08027044871289898	-0.001484091892763017	-0.04421622326482457	-0.001736318412531668	-0.02562805499709851	-0.03867909532705127	-0.03755300197960593	-0.03755300197960672	-0.0001082656816386891	0.008127697797633402	0.07803104680041154	0.02863517849914522	0.08552262365652093	-0.02051125939559575	0.04972837211839956	-0.1695272873002475	0.1133338002917018	-0.009973486531609186	-0.00303134437135166	-35.0739911646487	-9.719112121633195	-15.01005532246351	13.10667364245086	7.711902527187128	-694.7588433545703	55.39582339773571	0.06979636438379902	-0.08001002810828002	-0.002645517014136284	0.001357052478576726	0.002560898760093385	0.01794737234830489	0.1421823671754768	-0.03426564745323985	-0.03426564745317836	-4.930947582148092e-05	-0.003890701885139415	-0.1118366875433765	-0.03741284172170357	-2.143879585756213e-11	-1.459913368044384e-10	-3.84296651932927e-10	3.043426184984971e-10	1.535152426784213e-10	-4.621005972806271e-10	-9.534056273611453e-10
0.54	-0.006115960222495797	0.1155368324404354	0.9485552441725559	0.1597595355109798	-0.06700084786083617	0.02319048202429011	-0.0624203237363237	0.06041544391462858	0.0604154439146312	-0.1744444092921171	-0.1714751263495337	0.06921315542592257	0.1862820796614839	-0.06509756972275045	0.07944738708055234	-0.001508856733262015	-0.0441925942205879	-0.00171045534049032	-0.02543987310915308	-0.03723626462773974	-0.03789678561168414	-0.03789678561168474	-0.0001079913876990549	0.008086100488923604	0.07688422422553956	0.02824952025627762	0.08449880020338085	-0.0204039654891678	0.04925421184991814	-0.1671718414906865	0.1099741510707734	-0.01028185837522947	-0.002289280613904523	-35.05817453898032	-10.80568189933065	-15.12795888271252	12.8898575149621	8.09592021405652	-694.7653745813662	55.28331683339324	0.072875548216043	-0.08459625871861154	-0.002286385331100184	0.003130276554739875	0.002594306708404387	0.01961299490201055	0.1464228937233	-0.03486292449433431	-0.03486292449433684	0.0001446483774237021	-0.004341961611944872	-0.1176892006424369	-0.0398012500284153	-1.790774259697494e-11	-1.340969094378575e-10	-3.310854841019808e-10	2.844143038782243e-10	1.393031531086386e-10	-4.484797005669564e-10	-8.867986966278277e-10
0.55	-0.006763245551661137	0.1163270015123901	0.9485400447000557	0.159317828202489	-0.06701781958522199	0.02293710319143021	-0.06278531484042565	0.0600347793007622	0.06003477930076162	-0.1744454849284179	-0.1713945033650399	0.06997604313171621	0.1865625583114291	-0.06435476942828318	0.07857896756853734	-0.001530521361642031	-0.04414460825159731	-0.001683699127177351	-0.02523287693000823	-0.03575619501782265	-0.03823506823145161	-0.03823506823145195	-0.0001071258481213476	0.008037406103958351	0.07568472638492571	0.02784281248086533	0.08352458536091484	-0.02031010424715497	0.04879677850434832	-0.1649004556368001	0.1067343725029057	-0.01056978230127478	-0.00158598853536711	-35.04220503096546	-11.85205577101661	-15.23756506387297	12.68042376059769	8.454595225503303	-694.7681645842748	55.18216858569719	0.07569127730000319	-0.08908373266487783	-0.002029129019086232	0.006271636468497557	0.002744945560346846	0.02169544539420844	0.149663171104933	-0.03315058773834247	-0.03315058773826961	5.905019307991477e-05	-0.005296687638590159	-0.1223686681499799	-0.04161514055681838	-1.392820363902756e-11	-1.202842336890622e-10	-2.794177144355447e-10	2.65943953568946e-10	1.23680330660452e-10	-4.312255721077665e-10	-8.226739967535367e-10
